<?xml version="1.0" encoding="UTF-8"?>
<svg id="ramen" version="1.1" viewBox="0 0 700 700" xmlns="http://www.w3.org/2000/svg" style="fill:#fbf0e3" xmlns:xlink="http://www.w3.org/1999/xlink">
 <g>
  <path d="m595.33 98.402c1.1602-0.039063 2.2578-0.53516 3.0508-1.3828 0.79297-0.84766 1.2148-1.9766 1.1758-3.1328l-0.58594-17.492c-0.039062-1.168-0.54297-2.2734-1.4023-3.0664-0.85547-0.79688-1.9961-1.2109-3.1641-1.1602-359.98 16.07-384.12 17.145-391.2 17.457l-2.1836 0.097656c-2.3945 0.10547-4.2539 2.1211-4.1758 4.5156l0.4375 13.117c0.039062 1.1602 0.53516 2.2578 1.3828 3.0508 0.84766 0.79297 1.9766 1.2148 3.1328 1.1758l51.953-1.7383v3.9062h-52.5c-2.418 0-4.375 1.957-4.375 4.375v13.125c0 2.3984 1.9297 4.3477 4.3281 4.375l33.855 0.375c-1.5078 1.4102-3.375 2.3789-5.3984 2.7969l-10.895 2.1523h0.003906c-1.1406 0.22656-2.1445 0.89062-2.7891 1.8555-0.64844 0.96484-0.88281 2.1445-0.66016 3.2812l3.3867 17.172c0.41016 2.0508 2.207 3.5273 4.2969 3.5273 0.28125 0 0.56641-0.027344 0.84375-0.082031l10.891-2.1484c0.32812-0.0625 0.64062-0.17578 0.96875-0.25-1.6797 4.6289-4.7656 8.6172-8.8281 11.402l-7.8242 5.3477c-0.95703 0.65625-1.6172 1.6641-1.832 2.8047-0.21094 1.1406 0.035156 2.3203 0.69141 3.2773l9.875 14.445h-0.003906c0.65625 0.95703 1.6641 1.6172 2.8047 1.832 1.1406 0.21484 2.3203-0.035156 3.2773-0.6875l7.8242-5.3477c4.8086-3.293 9.0078-7.4023 12.402-12.137 1.0195 13.355 4.6094 26.391 10.574 38.387l9.5703 19.145c2.1484 4.3594 3.707 8.9883 4.6289 13.762-5.082-6.8516-11.102-12.957-17.883-18.133-13.586-9.8867-30.852-13.266-47.16-9.2227-16.312 4.0391-30.004 15.086-37.402 30.172-7.3984 15.09-7.75 32.676-0.95703 48.047-74.812 7.4023-74.84 16.73-74.84 21.277-0.18359 2.6719 1.1641 5.2109 3.4727 6.5625 7.2617 16.172 30.527 67.238 49.062 99.926 0.03125 0.039063 0.042969 0.085938 0.074219 0.12891 7.8828 13.887 14.902 24.438 19.453 27.512 13.082 7.8398 27.574 13.035 42.656 15.293l-4.3984 21.504c-0.24219 1.1836 0.019532 2.418 0.71484 3.4023 0.69922 0.98828 1.7773 1.6406 2.9727 1.8086 45.371 6.2969 91.117 9.4727 136.92 9.5078 44.781 0.035157 89.512-3.1406 133.84-9.5117 1.1914-0.17188 2.2617-0.82812 2.9531-1.8125 0.69141-0.98438 0.94922-2.2148 0.70703-3.3945l-4.3984-21.504c15.082-2.2578 29.574-7.457 42.652-15.293 15.266-10.309 58.227-104.5 68.59-127.57h0.003906c2.3086-1.3516 3.6523-3.8945 3.4727-6.5625 0-4.5664-0.046875-13-64.914-20.23l-0.003906-0.003906c5.1289-14.16 7.5508-29.156 7.1406-44.211-0.078124-2.3594-2.0117-4.2305-4.3711-4.2305h-0.074219c-20.312 0.41797-44.785-5.543-76.668-18.512-1.3594-0.55078-2.9023-0.38672-4.1172 0.4375-1.2109 0.82812-1.9258 2.207-1.9062 3.6719 0.13281 11.484-0.51953 22.961-1.957 34.355-11.078-7.2852-23.406-12.457-36.363-15.258-29.504-5.5859-56.34 3.1406-74.895 12.422v-9.9375c-0.023438-17.98-4.207-35.711-12.227-51.805l-9.5703-19.137v0.003907c-2.9219-5.8594-4.4453-12.316-4.4531-18.863v-14.445c1.6758 1.0117 3.4297 1.8906 5.2461 2.625l10.305 4.125c1.0781 0.43359 2.2852 0.42188 3.3516-0.035156 1.0664-0.45703 1.9102-1.3203 2.3398-2.3984l6.5039-16.25c0.89453-2.2422-0.19531-4.7891-2.4414-5.6875l-10.309-4.125c-2.0781-0.85938-3.8516-2.3164-5.0898-4.1914l270.05 3.0039h0.046875c1.1602 0 2.2734-0.46094 3.0938-1.2812s1.2812-1.9336 1.2812-3.0938v-17.5c0-1.1602-0.46094-2.2734-1.2812-3.0938s-1.9336-1.2812-3.0938-1.2812h-280v-5.957zm-389.6-0.13281c10.766-0.48047 56.961-2.5391 384.64-17.164l0.28906 8.6992-384.78 12.887zm90.242 109.71 9.5664 19.137v0.003907c6.207 12.445 9.4414 26.156 9.4609 40.062v37.57c-2.957-1.5938-5.8711-3.0625-8.75-4.4023v-33.168c-0.015625-12.547-2.9375-24.922-8.5352-36.152l-9.5664-19.137c-5.3477-10.723-8.1328-22.531-8.1484-34.512v-68.414l8.75-0.29297v68.707c0.011719 10.621 2.4844 21.094 7.2266 30.602zm43.324 79.637 0.0625-0.003906c4.3672-0.42578 8.7578-0.54297 13.141-0.34766 14.633 0.69922 31.367 6.4102 49.793 16.902-3.8867 1.2031-7.7031 2.625-11.43 4.25-0.082031-0.31641-0.16797-0.63672-0.23438-0.90625-1.0195-4.0234-2.2891-9.0312-6.7734-10.488-4.4102-1.4297-8.1094 1.6758-11.398 4.4062-1.1875 1.0625-2.457 2.0234-3.8008 2.8789-1.4805-0.77344-2.8516-1.7422-4.0742-2.8828-2.1836-2.1367-4.8516-3.7109-7.7734-4.5938-0.5625-0.35156-1.1992-0.57031-1.8594-0.63672-10.512-0.80469-21.082 0.29297-31.199 3.25v-9.1016 0.003906c5.1016-1.3281 10.301-2.2422 15.547-2.7305zm179.73 54.145c-4.6719 0.4375-9.5742 0.86328-14.672 1.2734-0.19922-0.21875-0.41797-0.42188-0.65625-0.59375-17.27-10.258-50.312-27.203-76.867-25.332-5.6836 0.40625-11.312 1.3789-16.805 2.9062 0.14453-1.7695-0.34375-3.5273-1.375-4.9727-0.89453-1.207-2.1406-2.1133-3.5664-2.5938 6.8633-2.1602 13.953-3.5234 21.129-4.0703 33.199-2.3125 72.488 20.004 92.809 33.383zm-133.3 6.3594c2.3555-3.2734 3.5508-7.2461 3.3945-11.277-0.16016-4.0352-1.6602-7.8984-4.2656-10.98-3.5352-4.1992-8.6289-6.7773-14.109-7.1367-6.9453-0.45703-13.797 1.8281-19.078 6.3633-3.4492 2.6836-6.0508 6.3086-7.4883 10.434-1.4375 4.1289-1.6562 8.582-0.625 12.832-3.1523-0.007812-6.293-0.019531-9.3906-0.035156-0.82422-0.58203-1.7266-1.1562-2.6367-1.7305v-0.003907c-1.1992-0.71875-2.3516-1.5117-3.4492-2.375 1.0977-0.86328 2.25-1.6562 3.4492-2.375 3.2148-1.5 5.8125-4.0664 7.3477-7.2656 0.65625-3.5664 0.0625-7.2539-1.6875-10.438-0.49609-1.1914-0.92969-2.4102-1.3008-3.6484 1.3086-0.035157 2.6211 0.003906 3.9297 0.11328 3.543 0.67578 7.2148 0.10938 10.391-1.6055 2.5938-2.4727 4.25-5.7695 4.6875-9.3281 0.30078-1.2891 0.67578-2.5625 1.1172-3.8125 1.0352 0.71875 2.0312 1.4922 2.9883 2.3125 2.5156 2.6797 5.8789 4.4062 9.5234 4.8828 3.6406-0.47656 7.0039-2.2031 9.5195-4.8789 0.95703-0.82031 1.9531-1.5938 2.9883-2.3164 0.44141 1.25 0.81641 2.5234 1.1172 3.8125 0.4375 3.5547 2.0938 6.8516 4.6875 9.3242 3.1719 1.7266 6.8438 2.293 10.391 1.6094 1.3047-0.10938 2.6172-0.14844 3.9297-0.11328-0.37109 1.2383-0.80469 2.457-1.3047 3.6484-1.7461 3.1836-2.3438 6.8711-1.6836 10.441 1.5391 3.1992 4.1367 5.7617 7.3516 7.2617 1.1953 0.71875 2.3438 1.5117 3.4414 2.375-1.0938 0.86328-2.2422 1.6523-3.4375 2.3711-0.64453 0.40625-1.2383 0.82031-1.8516 1.2266-5.8594 0.125-11.84 0.23047-17.945 0.3125zm-18.621 0.1875c-0.24219-0.4375-0.55859-0.82813-0.93359-1.1562-0.30859-0.25781-0.59766-0.53906-0.85938-0.84375-1.6953-1.9844-1.4688-4.9609 0.50781-6.6641 1.2227-1.0391 3.0547-0.89844 4.1016 0.31641 1.5742 1.832 4.3359 2.043 6.1719 0.46875 1.832-1.5742 2.043-4.3359 0.46875-6.168-4.1953-4.8789-11.543-5.4414-16.434-1.2617-4.3984 3.7969-5.8594 9.9883-3.625 15.355-1.2578 0.003907-2.5078 0.007813-3.7773 0.007813-2.4844-5.9492-0.57031-12.824 4.6289-16.633 3.5234-3 8.0664-4.5352 12.688-4.2812 3.1523 0.17188 6.0938 1.6406 8.125 4.0586 5.0312 5.9688 0.25391 12.789-2.9805 15.559l-0.003906-0.003906c-0.37891 0.33984-0.69531 0.74219-0.93359 1.1914-2.3594 0.019531-4.75 0.039062-7.1445 0.054688zm-49-0.14063c-0.19531-0.26172-0.42578-0.50391-0.67969-0.71484-14.07-9.8555-34.422-21.832-51.508-22.906-1.4492-0.09375-2.8711-0.13672-4.2734-0.13672-18.551 0.67578-36.406 7.2227-51 18.695-0.34766 0.27734-0.64844 0.60547-0.89062 0.97656-4.5156-0.3125-8.9297-0.63281-13.16-0.96875 14.547-12.598 39.715-29.27 69.871-27.301 18.262 1.1523 38.969 12.742 54.395 23.367h-0.003906c-1.2266 1.3906-1.918 3.1719-1.9414 5.0273 0.011719 1.4141 0.42969 2.8008 1.2031 3.9844-0.67188-0.003906-1.3398-0.015625-2.0117-0.023438zm-15.863-0.24219c-29.281-0.54688-55.574-1.582-78.609-2.9492h0.003907c11.363-7.3086 24.504-11.395 38.008-11.816 1.2148 0 2.4492 0.039062 3.7188 0.12109 11.504 0.72266 25.191 7.418 36.883 14.645zm-34.68-49.578c17.375 1.0938 37.5 9.2383 59.812 24.105 0.44531 1.6719 1.0078 3.3125 1.6758 4.9062 0.57422 1.4453 1.5352 3.8633 1.5898 4.3047-0.73438 0.75781-1.5742 1.4102-2.4883 1.9375-16.559-11.684-39.949-25.188-61.133-26.523-36.812-2.3477-66.57 20.156-81.02 33.797-0.36719 0.36328-0.66797 0.78906-0.88672 1.2578-3.9883-0.35938-7.875-0.72656-11.566-1.1016 11.621-12.312 47.566-45.609 94.016-42.684zm-57.742-26.848c4.0508-5.582 10.5-8.9219 17.395-9.0078 6.8945-0.085937 13.426 3.0898 17.617 8.5664 4.1875 5.4766 5.543 12.613 3.6562 19.242-12.219 1.6445-24.094 5.2148-35.191 10.578-4.1953-3.543-6.8867-8.5508-7.5312-14.004s0.80469-10.949 4.0547-15.375zm113.93 36.957c0.078125-0.019531 0.15625-0.011719 0.23438-0.035156 7.5078-2.375 15.324-3.6367 23.199-3.7461-0.28906 0.96094-0.54297 1.9219-0.77344 2.8359-0.37109 1.4688-0.99609 3.9297-1.1953 4.3086-1.6016 0.22656-3.2305 0.24219-4.8359 0.042969-3.6211-0.67578-7.3633-0.054687-10.566 1.7578-2.0312-1.3203-4.0625-2.6328-6.0625-3.8477zm94.277 36.582v0.003906c2.2773-0.59375 4.5859-1.0547 6.9141-1.375 1.2031-0.16016 2.4297-0.28516 3.6992-0.37109h0.003906c7.1094-0.20312 14.203 0.82812 20.965 3.043-10.242 0.44531-20.992 0.82422-32.25 1.1328 0.35938-0.76562 0.58594-1.5859 0.66797-2.4297zm52.289 0.27734c-0.42188-0.53516-0.96875-0.96094-1.5898-1.2461-16.281-7.0547-30-10.238-40.684-9.5039-1.4492 0.097656-2.8633 0.24219-4.2539 0.42578v0.003907c-3.0117 0.40234-5.9883 1.0078-8.9219 1.8086-0.25 0.097657-0.49219 0.21875-0.72266 0.36328-1.2656-0.99219-2.5898-1.9062-3.9688-2.7383-1.2578-0.79297-3.3594-2.1172-3.6484-2.4062 0.042968-0.64844 0.1875-1.2852 0.42578-1.8906 6.6016-2.3477 13.488-3.793 20.477-4.293 19.871-1.3672 44.309 9.1328 61.52 18.332-5.9688 0.40234-12.18 0.78516-18.633 1.1445zm-44.711-45.664c-3.8828 0.29687-7.7461 0.81641-11.566 1.5586-0.24219-0.29688-0.52344-0.55859-0.83594-0.78125-6.6406-4.1016-13.523-7.8008-20.605-11.078 6.2422-0.375 12.508 0.007813 18.66 1.1406 8.043 1.7422 15.746 4.8008 22.797 9.043-2.8164-0.10938-5.6367-0.070312-8.4492 0.11719zm-219.98-177.15h48.125v4.9531l-48.125-0.53125zm27.422 33.469-6.6016 1.3047-1.6914-8.582 6.6016-1.3047v-0.003907c3.1797-0.63281 6.1641-2.0273 8.6875-4.0664l-2.1016 11.176h0.003906c-1.5859 0.63672-3.2266 1.1328-4.8984 1.4766zm3.7031 34.188-4.207 2.8789-4.9375-7.2227 4.2109-2.8789c7.1328-4.8477 12.027-12.348 13.594-20.828l4.875-25.938 3.4648 0.039062v29.582-0.003906c-0.14453 0.23828-0.26562 0.48828-0.36328 0.74609-2.5078 9.625-8.418 18.02-16.637 23.625zm35.742 29.562v-0.003906c-6.5547-13.148-9.9766-27.641-9.9922-42.336v-45.41l0.007812-0.039062-0.007812-0.042969v-22.336l8.75-0.29297v68.121c0.015625 13.336 3.1211 26.488 9.0703 38.426l9.5664 19.137c4.9961 10.016 7.6016 21.051 7.6133 32.238v29.426c-2.9648-1.1562-5.8789-2.1523-8.75-3.0273v-26.398c-0.011719-9.8281-2.3008-19.523-6.6875-28.32zm-83.895 36.328c7.5117-10.324 18.816-17.242 31.426-19.223 12.613-1.9844 25.492 1.1289 35.809 8.6523 9.7422 7.7109 17.887 17.254 23.969 28.094 0.054688 0.089844 0.14453 0.14063 0.19922 0.22266v17.547c-3.918-0.85938-7.8906-1.4375-11.891-1.7266-3.4805-0.21484-6.9727-0.24609-10.457-0.10156 1.7734-10.426-1.9609-21.027-9.8789-28.043-7.9141-7.0117-18.891-9.4414-29.027-6.4258-10.133 3.0156-17.996 11.051-20.789 21.25-2.7969 10.199-0.12891 21.121 7.0586 28.883-5.1328 2.8906-10.094 6.082-14.855 9.5547-6.7148-8.2344-10.508-18.457-10.789-29.078-0.28125-10.617 2.9609-21.027 9.2266-29.605zm-5.3828 64.027c-7.3984 5.9297-14.215 12.555-20.348 19.785-28.281-3.2891-45.949-7.0781-51.824-10.512l-0.41016-0.91797c3.9883-2.3008 18.566-7.8398 69.402-12.676 0.98047 1.4805 2.043 2.918 3.1797 4.3203zm357.36 108.45c-46.641 5.7031-115.96 8.9766-190.57 8.9766-74.711 0-143.94-3.2734-190.57-8.9844-3.8711-6.9961-8.0586-14.949-12.371-23.422 45.977 6.6211 120.72 10.531 202.95 10.531s156.97-3.9102 202.95-10.531c-4.3164 8.4766-8.5039 16.43-12.375 23.43zm-61.016 68.277c-85.973 11.707-173.13 11.695-259.1-0.027343l3.5078-17.16c34.035 5.3438 77.953 6.0117 126.04 6.0117s92.004-0.66797 126.04-6.0117zm42.863-41.246c-29.199 19.715-95.359 21.32-172.42 21.32s-143.22-1.6055-172.41-21.32c-5.1641-5.1445-9.4727-11.082-12.766-17.586 61.543 5.9805 123.35 8.7422 185.18 8.2812 61.828 0.46094 123.64-2.3047 185.18-8.2852-3.2891 6.5039-7.5977 12.445-12.766 17.59zm35.359-60.059c-44.238 7.0234-123.42 11.379-207.78 11.379s-163.54-4.3555-207.77-11.379c-9.0547-18.188-18.34-37.852-26.18-55.062 10.785 3.207 29.105 6.5469 60.289 9.6094 46.41 4.5586 108.09 7.0703 173.66 7.0703 18.738 0 37.137-0.21094 54.973-0.61328l0.0625 0.015625c0.039063 0 0.082032-0.015625 0.12109-0.019531 44.512-1 85.402-3.2031 118.51-6.4531 2.5703-0.25391 5.0391-0.50781 7.4375-0.76172 0.09375 0.007812 0.1875 0.042969 0.28125 0.042969h0.003907c0.20312-0.03125 0.40234-0.078125 0.59766-0.14062 17.539-1.4492 34.922-4.3789 51.969-8.75-7.8359 17.211-17.121 36.875-26.18 55.062zm31.609-67.109c-0.14062 0.31641-0.28906 0.64062-0.42969 0.96094-6.1953 3.6133-25.453 7.6289-56.441 11.035-2.4805-1.7656-5.6836-3.9805-9.5742-6.5195 3.0469-5.5117 5.8008-11.18 8.25-16.977 41.992 4.5547 54.535 9.3359 58.195 11.5zm-126.17-76.387c27.969 10.918 50.371 16.297 69.695 16.738h0.003906c-0.66016 21.285-6.6328 42.066-17.383 60.449-5.0664-3.1016-10.777-6.3945-16.98-9.6367-0.16797-0.39453-0.39453-0.76172-0.67188-1.0859-11.305-12.223-23.777-23.309-37.246-33.098 1.5742-11.055 2.4375-22.199 2.582-33.367zm-48.703 21.293c22.512 4.2617 45.023 20.867 61.586 35.973l-0.003906-0.003906c-7.1797-2.832-14.559-5.1367-22.074-6.8984-0.089843-0.078125-0.13672-0.19141-0.23828-0.26172-11.961-9.6875-25.93-16.594-40.891-20.207-12.258-2.2461-24.852-1.918-36.977 0.96875-5.6133-1.7852-11.379-3.0586-17.223-3.8125 17.73-6.9844 37.035-8.9766 55.82-5.7578zm-87.762-123.98 6.2461 2.5-3.2539 8.125-6.2461-2.5c-3.1211-1.2617-6-3.0625-8.4961-5.3242v-15.227h0.16016c1.832 5.6523 6.0742 10.203 11.59 12.426zm263.88-26.812v8.6992l-275.62-3.0664v-5.6328zm-279 77.652 9.5703 19.137c7.4141 14.879 11.285 31.27 11.305 47.891v12.492c-2.9219 0.44922-5.8398 1.0078-8.75 1.707v-14.199c-0.019531-15.262-3.5703-30.316-10.383-43.98l-9.5664-19.133c-4.1328-8.2891-6.2891-17.426-6.3008-26.688v-69l8.75-0.29297v69.293c0.011719 7.9062 1.8516 15.699 5.375 22.773z"/>
 </g>
</svg>
